<svg width="16" height="17" viewBox="0 0 16 17" fill="none" xmlns="http://www.w3.org/2000/svg">
<path d="M8 0.5C6.41775 0.5 4.87103 0.969192 3.55544 1.84824C2.23985 2.72729 1.21447 3.97672 0.608967 5.43853C0.00346628 6.90034 -0.15496 8.50887 0.153721 10.0607C0.462403 11.6126 1.22433 13.038 2.34315 14.1569C3.46197 15.2757 4.88743 16.0376 6.43928 16.3463C7.99113 16.655 9.59966 16.4965 11.0615 15.891C12.5233 15.2855 13.7727 14.2602 14.6518 12.9446C15.5308 11.629 16 10.0822 16 8.5C15.9978 6.37895 15.1542 4.34542 13.6544 2.84562C12.1546 1.34581 10.121 0.50224 8 0.5ZM11.5123 7.08923L7.20462 11.3969C7.14746 11.4541 7.07959 11.4995 7.00489 11.5305C6.93018 11.5615 6.8501 11.5774 6.76923 11.5774C6.68836 11.5774 6.60828 11.5615 6.53358 11.5305C6.45887 11.4995 6.391 11.4541 6.33385 11.3969L4.48769 9.55077C4.37222 9.4353 4.30735 9.27868 4.30735 9.11538C4.30735 8.95208 4.37222 8.79547 4.48769 8.68C4.60317 8.56453 4.75978 8.49966 4.92308 8.49966C5.08638 8.49966 5.24299 8.56453 5.35846 8.68L6.76923 10.0915L10.6415 6.21846C10.6987 6.16128 10.7666 6.11593 10.8413 6.08499C10.916 6.05404 10.9961 6.03812 11.0769 6.03812C11.1578 6.03812 11.2378 6.05404 11.3126 6.08499C11.3873 6.11593 11.4551 6.16128 11.5123 6.21846C11.5695 6.27564 11.6148 6.34351 11.6458 6.41822C11.6767 6.49292 11.6927 6.57299 11.6927 6.65384C11.6927 6.7347 11.6767 6.81477 11.6458 6.88947C11.6148 6.96418 11.5695 7.03205 11.5123 7.08923Z" fill="#248827"/>
</svg>
