<svg width="15" height="9" viewBox="0 0 15 9" fill="none" xmlns="http://www.w3.org/2000/svg">
<path d="M14.4712 1.63826L7.80501 8.30449C7.7431 8.36647 7.66958 8.41564 7.58865 8.44919C7.50773 8.48273 7.42098 8.5 7.33338 8.5C7.24577 8.5 7.15903 8.48273 7.0781 8.44919C6.99717 8.41564 6.92365 8.36647 6.86174 8.30449L0.195512 1.63826C0.102177 1.54503 0.0386032 1.4262 0.012838 1.29682C-0.0129272 1.16744 0.000274978 1.03332 0.0507733 0.911446C0.101272 0.789572 0.186795 0.685422 0.296517 0.612179C0.40624 0.538937 0.535226 0.499896 0.667148 0.5H13.9996C14.1315 0.499896 14.2605 0.538937 14.3702 0.612179C14.48 0.685422 14.5655 0.789572 14.616 0.911446C14.6665 1.03332 14.6797 1.16744 14.6539 1.29682C14.6282 1.4262 14.5646 1.54503 14.4712 1.63826Z" fill="url(#paint0_linear_15557_23515)"/>
<defs>
<linearGradient id="paint0_linear_15557_23515" x1="7.33338" y1="0.5" x2="7.33338" y2="8.5" gradientUnits="userSpaceOnUse">
<stop stop-color="#154FBB"/>
<stop offset="1" stop-color="#1C4996"/>
</linearGradient>
</defs>
</svg>
